# xmcd CD database file
#
# Track frame offsets:
#	150
#	15325
#	27985
#	52343
#	62689
#	73178
#	88135
#	112991
#	129315
#	146167
#	155561
#	173715
#	188780
#	203550
#	219513
#	239584
#	258403
#	278679
#	294894
#	314443
#	330279
#	348478
#
# Disc length: 4850 seconds
#
# Revision: 0
# Processed by: cddbd v1.5.2PL0 Copyright (c) Steve Scherf et al.
# Submitted via: CDex 1.51
#
DISCID=4812f016
DTITLE=Claude Nougaro - Les 100 plus belles chansons [CD4)
DYEAR=2009
DGENRE=Blues
TTITLE0=Le coq et la pendule
TTITLE1=Faire une chanson qui t'aille
TTITLE2=Ça fait mal
TTITLE3=Le chat
TTITLE4=Le piano de mauvaise vie
TTITLE5=Rimes
TTITLE6=Un été
TTITLE7=Ami chemin
TTITLE8=Very Nice
TTITLE9=Bleu Blanc Blues
TTITLE10=Sa Majesté le Jazz
TTITLE11=Femme orchestre
TTITLE12=Réunion
TTITLE13=Nougayork
TTITLE14=Il faut tourner le page
TTITLE15=Vie violence
TTITLE16=C'est une Garonne
TTITLE17=Façon Chaplin
TTITLE18=L'enfant phare
TTITLE19=Les pas
TTITLE20=Avec les anges
TTITLE21=J'ai perdu le Montblanc dans la neige
EXTD=YEAR: 2009
EXTT0=
EXTT1=
EXTT2=
EXTT3=
EXTT4=
EXTT5=
EXTT6=
EXTT7=
EXTT8=
EXTT9=
EXTT10=
EXTT11=
EXTT12=
EXTT13=
EXTT14=
EXTT15=
EXTT16=
EXTT17=
EXTT18=
EXTT19=
EXTT20=
EXTT21=
PLAYORDER=
